{
  "accessors": [
    {
      "bufferView": 2,
      "componentType": 5126,
      "count": 50530,
      "max": [
        1.535720944404602,
        1.546349048614502,
        1.2721199989318848
      ],
      "min": [
        -1.535720944404602,
        -0.04278400167822838,
        -2.1694281101226807
      ],
      "type": "VEC3"
    },
    {
      "bufferView": 2,
      "byteOffset": 606360,
      "componentType": 5126,
      "count": 50530,
      "max": [
        0.9999808669090271,
        0.9999899864196777,
        0.9999087452888489
      ],
      "min": [
        -0.9999808669090271,
        -0.999970018863678,
        -0.9997308850288391
      ],
      "type": "VEC3"
    },
    {
      "bufferView": 3,
      "componentType": 5126,
      "count": 50530,
      "max": [
        0.9999921917915344,
        0.9999894499778748,
        0.9998685717582703,
        1.0
      ],
      "min": [
        -0.9999921917915344,
        -0.9999565482139587,
        -0.9998569488525391,
        -1.0
      ],
      "type": "VEC4"
    },
    {
      "bufferView": 1,
      "componentType": 5126,
      "count": 50530,
      "max": [
        0.9954460263252258,
        0.9646509885787964
      ],
      "min": [
        0.0,
        0.02210799977183342
      ],
      "type": "VEC2"
    },
    {
      "bufferView": 0,
      "componentType": 5125,
      "count": 285120,
      "type": "SCALAR"
    }
  ],
  "asset": {
    "extras": {
      "author": "Allay Design (https://sketchfab.com/Alister.Dsa)",
      "license": "SKETCHFAB Standard (https://sketchfab.com/licenses)",
      "source": "https://sketchfab.com/3d-models/cowboy-shoes-mid-poly-9424d591a1324a18945eae010c0bd169",
      "title": "Cowboy Shoes - Mid Poly"
    },
    "generator": "Sketchfab-16.53.0",
    "version": "2.0"
  },
  "bufferViews": [
    {
      "buffer": 0,
      "byteLength": 1140480,
      "name": "floatBufferViews",
      "target": 34963
    },
    {
      "buffer": 0,
      "byteLength": 404240,
      "byteOffset": 1140480,
      "byteStride": 8,
      "name": "floatBufferViews",
      "target": 34962
    },
    {
      "buffer": 0,
      "byteLength": 1212720,
      "byteOffset": 1544720,
      "byteStride": 12,
      "name": "floatBufferViews",
      "target": 34962
    },
    {
      "buffer": 0,
      "byteLength": 808480,
      "byteOffset": 2757440,
      "byteStride": 16,
      "name": "floatBufferViews",
      "target": 34962
    }
  ],
  "buffers": [
    {
      "byteLength": 3565920,
      "uri": "scene.bin"
    }
  ],
  "images": [
    {
      "uri": "textures/blinn8SG_baseColor.jpeg"
    },
    {
      "uri": "textures/blinn8SG_normal.png"
    }
  ],
  "materials": [
    {
      "doubleSided": true,
      "name": "blinn8SG",
      "normalTexture": {
        "index": 1
      },
      "pbrMetallicRoughness": {
        "baseColorTexture": {
          "index": 0
        },
        "metallicFactor": 0.0,
        "roughnessFactor": 0.475963555442059
      }
    }
  ],
  "meshes": [
    {
      "name": "defaultMaterial",
      "primitives": [
        {
          "attributes": {
            "NORMAL": 1,
            "POSITION": 0,
            "TANGENT": 2,
            "TEXCOORD_0": 3
          },
          "indices": 4,
          "material": 0,
          "mode": 4
        }
      ]
    }
  ],
  "nodes": [
    {
      "children": [
        1
      ],
      "matrix": [
        1.0,
        0.0,
        0.0,
        0.0,
        0.0,
        2.220446049250313e-16,
        -1.0,
        0.0,
        0.0,
        1.0,
        2.220446049250313e-16,
        0.0,
        0.0,
        0.0,
        0.0,
        1.0
      ],
      "name": "Sketchfab_model"
    },
    {
      "children": [
        2
      ],
      "matrix": [
        1.0,
        0.0,
        0.0,
        0.0,
        0.0,
        -4.371139006309477e-08,
        0.999999999999999,
        0.0,
        0.0,
        -0.999999999999999,
        -4.371139006309477e-08,
        0.0,
        0.0,
        0.0,
        0.0,
        1.0
      ],
      "name": "Collada visual scene group"
    },
    {
      "children": [
        3
      ],
      "name": "polySurface73"
    },
    {
      "mesh": 0,
      "name": "defaultMaterial"
    }
  ],
  "samplers": [
    {
      "magFilter": 9729,
      "minFilter": 9987,
      "wrapS": 10497,
      "wrapT": 10497
    }
  ],
  "scene": 0,
  "scenes": [
    {
      "name": "Sketchfab_Scene",
      "nodes": [
        0
      ]
    }
  ],
  "textures": [
    {
      "sampler": 0,
      "source": 0
    },
    {
      "sampler": 0,
      "source": 1
    }
  ]
}
