{
  "accessors": [
    {
      "bufferView": 2,
      "componentType": 5126,
      "count": 60132,
      "max": [
        12.196290016174316,
        6.681190013885498,
        17.294960021972656
      ],
      "min": [
        0.5102499723434448,
        -1.6186100244522095,
        -0.36136001348495483
      ],
      "type": "VEC3"
    },
    {
      "bufferView": 2,
      "byteOffset": 721584,
      "componentType": 5126,
      "count": 60132,
      "max": [
        0.999978244304657,
        0.9999538064002991,
        0.999951183795929
      ],
      "min": [
        -0.999987781047821,
        -0.9999963641166687,
        -0.9999904036521912
      ],
      "type": "VEC3"
    },
    {
      "bufferView": 1,
      "componentType": 5126,
      "count": 60132,
      "max": [
        1.0,
        1.0
      ],
      "min": [
        0.0,
        0.0
      ],
      "type": "VEC2"
    },
    {
      "bufferView": 0,
      "componentType": 5125,
      "count": 334833,
      "type": "SCALAR"
    },
    {
      "bufferView": 2,
      "byteOffset": 1443168,
      "componentType": 5126,
      "count": 717,
      "max": [
        27.775819778442383,
        11.638959884643555,
        13.889140129089355
      ],
      "min": [
        -0.9999799728393555,
        -0.218189999461174,
        -1.0024000406265259
      ],
      "type": "VEC3"
    },
    {
      "bufferView": 2,
      "byteOffset": 1451772,
      "componentType": 5126,
      "count": 717,
      "max": [
        0.9695090055465698,
        0.9960641860961914,
        0.999782145023346
      ],
      "min": [
        -0.9881505966186523,
        -0.9291244149208069,
        -0.9944998025894165
      ],
      "type": "VEC3"
    },
    {
      "bufferView": 1,
      "byteOffset": 481056,
      "componentType": 5126,
      "count": 717,
      "max": [
        1.0,
        1.0
      ],
      "min": [
        0.0,
        0.0
      ],
      "type": "VEC2"
    },
    {
      "bufferView": 0,
      "byteOffset": 1339332,
      "componentType": 5125,
      "count": 1980,
      "type": "SCALAR"
    },
    {
      "bufferView": 2,
      "byteOffset": 1460376,
      "componentType": 5126,
      "count": 717,
      "max": [
        27.775819778442383,
        11.638959884643555,
        13.889140129089355
      ],
      "min": [
        -0.9999799728393555,
        -0.218189999461174,
        -1.0024000406265259
      ],
      "type": "VEC3"
    },
    {
      "bufferView": 2,
      "byteOffset": 1468980,
      "componentType": 5126,
      "count": 717,
      "max": [
        0.9695090055465698,
        0.9960641860961914,
        0.999782145023346
      ],
      "min": [
        -0.9881505966186523,
        -0.9291244149208069,
        -0.9944998025894165
      ],
      "type": "VEC3"
    },
    {
      "bufferView": 1,
      "byteOffset": 486792,
      "componentType": 5126,
      "count": 717,
      "max": [
        1.0,
        1.0
      ],
      "min": [
        0.0,
        0.0
      ],
      "type": "VEC2"
    },
    {
      "bufferView": 0,
      "byteOffset": 1347252,
      "componentType": 5125,
      "count": 1980,
      "type": "SCALAR"
    },
    {
      "bufferView": 2,
      "byteOffset": 1477584,
      "componentType": 5126,
      "count": 60132,
      "max": [
        12.196290016174316,
        6.681190013885498,
        17.294960021972656
      ],
      "min": [
        0.5102499723434448,
        -1.6186100244522095,
        -0.36136001348495483
      ],
      "type": "VEC3"
    },
    {
      "bufferView": 2,
      "byteOffset": 2199168,
      "componentType": 5126,
      "count": 60132,
      "max": [
        0.999978244304657,
        0.9999538064002991,
        0.999951183795929
      ],
      "min": [
        -0.999987781047821,
        -0.9999963641166687,
        -0.9999904036521912
      ],
      "type": "VEC3"
    },
    {
      "bufferView": 1,
      "byteOffset": 492528,
      "componentType": 5126,
      "count": 60132,
      "max": [
        1.0,
        1.0
      ],
      "min": [
        0.0,
        0.0
      ],
      "type": "VEC2"
    },
    {
      "bufferView": 0,
      "byteOffset": 1355172,
      "componentType": 5125,
      "count": 334833,
      "type": "SCALAR"
    },
    {
      "bufferView": 2,
      "byteOffset": 2920752,
      "componentType": 5126,
      "count": 23678,
      "max": [
        1.102720022201538,
        0.9067100286483765,
        2.12893009185791
      ],
      "min": [
        -0.03511999920010567,
        -0.9788600206375122,
        -0.48271000385284424
      ],
      "type": "VEC3"
    },
    {
      "bufferView": 2,
      "byteOffset": 3204888,
      "componentType": 5126,
      "count": 23678,
      "max": [
        0.9998980164527893,
        0.9998624920845032,
        0.9993638396263123
      ],
      "min": [
        -0.9999969005584717,
        -0.999889075756073,
        -0.9999997019767761
      ],
      "type": "VEC3"
    },
    {
      "bufferView": 0,
      "byteOffset": 2694504,
      "componentType": 5125,
      "count": 46773,
      "type": "SCALAR"
    },
    {
      "bufferView": 2,
      "byteOffset": 3489024,
      "componentType": 5126,
      "count": 23678,
      "max": [
        1.102720022201538,
        0.9067100286483765,
        2.12893009185791
      ],
      "min": [
        -0.03511999920010567,
        -0.9788600206375122,
        -0.48271000385284424
      ],
      "type": "VEC3"
    },
    {
      "bufferView": 2,
      "byteOffset": 3773160,
      "componentType": 5126,
      "count": 23678,
      "max": [
        0.9998980164527893,
        0.9998624920845032,
        0.9993638396263123
      ],
      "min": [
        -0.9999969005584717,
        -0.999889075756073,
        -0.9999997019767761
      ],
      "type": "VEC3"
    },
    {
      "bufferView": 0,
      "byteOffset": 2881596,
      "componentType": 5125,
      "count": 46773,
      "type": "SCALAR"
    }
  ],
  "asset": {
    "extras": {
      "author": "Bente Aimee (https://sketchfab.com/bentaimee)",
      "license": "CC-BY-NC-4.0 (http://creativecommons.org/licenses/by-nc/4.0/)",
      "source": "https://sketchfab.com/3d-models/shoes-test-8a6dfbba461f4e7fb6b9119092572f14",
      "title": "Shoes test"
    },
    "generator": "Sketchfab-12.66.0",
    "version": "2.0"
  },
  "bufferViews": [
    {
      "buffer": 0,
      "byteLength": 3068688,
      "name": "floatBufferViews",
      "target": 34963
    },
    {
      "buffer": 0,
      "byteLength": 973584,
      "byteOffset": 3068688,
      "byteStride": 8,
      "name": "floatBufferViews",
      "target": 34962
    },
    {
      "buffer": 0,
      "byteLength": 4057296,
      "byteOffset": 4042272,
      "byteStride": 12,
      "name": "floatBufferViews",
      "target": 34962
    }
  ],
  "buffers": [
    {
      "byteLength": 8099568,
      "uri": "scene.bin"
    }
  ],
  "materials": [
    {
      "doubleSided": true,
      "name": "Root",
      "pbrMetallicRoughness": {
        "metallicFactor": 0.0,
        "roughnessFactor": 0.6
      }
    },
    {
      "doubleSided": true,
      "name": "Material.003",
      "pbrMetallicRoughness": {
        "metallicFactor": 0.0,
        "roughnessFactor": 0.6
      }
    },
    {
      "doubleSided": true,
      "name": "BakedCycles",
      "pbrMetallicRoughness": {
        "baseColorFactor": [
          0.6400000190400001,
          0.6400000190400001,
          0.6400000190400001,
          1.0
        ],
        "metallicFactor": 0.0,
        "roughnessFactor": 0.6
      }
    },
    {
      "doubleSided": true,
      "name": "BakedCycles.001",
      "pbrMetallicRoughness": {
        "baseColorFactor": [
          0.6400000190400001,
          0.6400000190400001,
          0.6400000190400001,
          1.0
        ],
        "metallicFactor": 0.0,
        "roughnessFactor": 0.6
      }
    }
  ],
  "meshes": [
    {
      "name": "Cube.007_0",
      "primitives": [
        {
          "attributes": {
            "NORMAL": 1,
            "POSITION": 0,
            "TEXCOORD_0": 2
          },
          "indices": 3,
          "material": 1,
          "mode": 4
        }
      ]
    },
    {
      "name": "Cylinder.004_0",
      "primitives": [
        {
          "attributes": {
            "NORMAL": 5,
            "POSITION": 4,
            "TEXCOORD_0": 6
          },
          "indices": 7,
          "material": 3,
          "mode": 4
        }
      ]
    },
    {
      "name": "Cylinder.000_0",
      "primitives": [
        {
          "attributes": {
            "NORMAL": 9,
            "POSITION": 8,
            "TEXCOORD_0": 10
          },
          "indices": 11,
          "material": 2,
          "mode": 4
        }
      ]
    },
    {
      "name": "Cube.000_0",
      "primitives": [
        {
          "attributes": {
            "NORMAL": 13,
            "POSITION": 12,
            "TEXCOORD_0": 14
          },
          "indices": 15,
          "material": 1,
          "mode": 4
        }
      ]
    },
    {
      "name": "Cube_0",
      "primitives": [
        {
          "attributes": {
            "NORMAL": 17,
            "POSITION": 16
          },
          "indices": 18,
          "material": 0,
          "mode": 4
        }
      ]
    },
    {
      "name": "Cube.001_0",
      "primitives": [
        {
          "attributes": {
            "NORMAL": 20,
            "POSITION": 19
          },
          "indices": 21,
          "material": 0,
          "mode": 4
        }
      ]
    }
  ],
  "nodes": [
    {
      "children": [
        1
      ],
      "matrix": [
        0.09313198924064636,
        0.0,
        0.0,
        0.0,
        0.0,
        2.0679455756821588e-17,
        -0.09313198924064636,
        0.0,
        0.0,
        0.09313198924064636,
        2.0679455756821588e-17,
        0.0,
        0.0,
        0.0,
        0.0,
        1.0
      ],
      "name": "Sketchfab_model"
    },
    {
      "children": [
        2,
        4,
        6,
        8,
        10,
        12,
        14,
        16,
        18,
        20
      ],
      "name": "Root"
    },
    {
      "children": [
        3
      ],
      "matrix": [
        -0.29086000000000006,
        0.9551700000000001,
        -0.05519000000000001,
        0.0,
        -0.7711,
        -0.19988000000000003,
        0.6045200000000001,
        0.0,
        0.5663900000000001,
        0.21839000000000003,
        0.7946700000000001,
        0.0,
        4.076250000000001,
        1.00545,
        5.903860000000001,
        1.0
      ],
      "name": "Lamp"
    },
    {
      "name": "Lamp"
    },
    {
      "children": [
        5
      ],
      "matrix": [
        0.09298000000000002,
        -0.014790000000000003,
        0.0015400000000000006,
        0.0,
        0.03317000000000001,
        0.20878000000000002,
        0.0025500000000000006,
        0.0,
        -0.003040000000000001,
        -0.0015700000000000004,
        0.16843000000000005,
        0.0,
        -0.49740000000000006,
        -0.7037900000000001,
        -0.18519000000000002,
        1.0
      ],
      "name": "Cube.007"
    },
    {
      "mesh": 0,
      "name": "Cube.007_0"
    },
    {
      "children": [
        7
      ],
      "matrix": [
        0.023230000000000004,
        0.0017000000000000006,
        0.004140000000000001,
        0.0,
        -0.0018300000000000005,
        -0.006600000000000002,
        0.012990000000000002,
        0.0,
        0.004900000000000002,
        -0.030630000000000004,
        -0.014860000000000002,
        0.0,
        -0.30352000000000007,
        -0.7166900000000002,
        -0.06270000000000002,
        1.0
      ],
      "name": "Cylinder.004"
    },
    {
      "mesh": 1,
      "name": "Cylinder.004_0"
    },
    {
      "children": [
        9
      ],
      "matrix": [
        -0.010820000000000001,
        0.020970000000000006,
        0.0016600000000000002,
        0.0,
        -0.0050100000000000006,
        -0.0036400000000000013,
        0.013320000000000002,
        0.0,
        -0.02824,
        -0.013440000000000002,
        -0.014310000000000002,
        0.0,
        2.4222099999999998,
        -0.7511500000000001,
        -0.030870000000000005,
        1.0
      ],
      "name": "Cylinder.000"
    },
    {
      "mesh": 2,
      "name": "Cylinder.000_0"
    },
    {
      "children": [
        11
      ],
      "matrix": [
        -0.06195000000000001,
        0.07076000000000002,
        -0.004640000000000001,
        0.0,
        0.15907000000000002,
        0.13926000000000002,
        0.0,
        0.0,
        -0.005470000000000001,
        0.006240000000000002,
        0.16826000000000005,
        0.0,
        2.5315,
        -0.91554,
        -0.14374000000000003,
        1.0
      ],
      "name": "Cube.000"
    },
    {
      "mesh": 3,
      "name": "Cube.000_0"
    },
    {
      "children": [
        13
      ],
      "matrix": [
        1.0,
        0.0,
        0.0,
        0.0,
        0.0,
        1.0,
        0.0,
        0.0,
        0.0,
        0.0,
        1.0,
        0.0,
        -0.38473,
        -0.24305000000000002,
        0.23823000000000003,
        1.0
      ],
      "name": "Cube"
    },
    {
      "mesh": 4,
      "name": "Cube_0"
    },
    {
      "children": [
        15
      ],
      "matrix": [
        -0.5579400000000001,
        0.8612700000000001,
        -0.06991000000000001,
        0.0,
        0.8399700000000001,
        0.5437200000000001,
        -0.005170000000000001,
        0.0,
        -0.032610000000000014,
        0.059870000000000013,
        0.9978,
        0.0,
        2.8592799999999996,
        -0.55898,
        0.27495,
        1.0
      ],
      "name": "Cube.001"
    },
    {
      "mesh": 5,
      "name": "Cube.001_0"
    },
    {
      "children": [
        17
      ],
      "matrix": [
        -0.29086000000000006,
        0.9551700000000001,
        -0.05519000000000001,
        0.0,
        -0.7711,
        -0.19988000000000003,
        0.6045200000000001,
        0.0,
        0.5663900000000001,
        0.21839000000000003,
        0.7946700000000001,
        0.0,
        -2.3722499999999993,
        -4.26882,
        4.90205,
        1.0
      ],
      "name": "Lamp.001"
    },
    {
      "name": "Lamp.001"
    },
    {
      "children": [
        19
      ],
      "matrix": [
        -0.29086000000000006,
        0.9551700000000001,
        -0.05519000000000001,
        0.0,
        -0.7711,
        -0.19988000000000003,
        0.6045200000000001,
        0.0,
        0.5663900000000001,
        0.21839000000000003,
        0.7946700000000001,
        0.0,
        3.3598199999999996,
        -6.61379,
        5.7709,
        1.0
      ],
      "name": "Lamp.002"
    },
    {
      "name": "Lamp.002"
    },
    {
      "children": [
        21
      ],
      "matrix": [
        -0.29086000000000006,
        0.9551700000000001,
        -0.05519000000000001,
        0.0,
        -0.7711,
        -0.19988000000000003,
        0.6045200000000001,
        0.0,
        0.5663900000000001,
        0.21839000000000003,
        0.7946700000000001,
        0.0,
        -3.52095,
        0.23818,
        8.50161,
        1.0
      ],
      "name": "Lamp.003"
    },
    {
      "name": "Lamp.003"
    }
  ],
  "scene": 0,
  "scenes": [
    {
      "name": "Sketchfab_Scene",
      "nodes": [
        0
      ]
    }
  ]
}
