{
  "accessors": [
    {
      "bufferView": 2,
      "componentType": 5126,
      "count": 40349,
      "max": [
        0.7986865043640137,
        0.4668300151824951,
        0.2654639184474945
      ],
      "min": [
        -0.7929166555404663,
        -7.136166095733643e-05,
        -0.2864433825016022
      ],
      "type": "VEC3"
    },
    {
      "bufferView": 2,
      "byteOffset": 484188,
      "componentType": 5126,
      "count": 40349,
      "max": [
        0.9999904632568359,
        0.9999982714653015,
        0.9999667406082153
      ],
      "min": [
        -0.99997478723526,
        -1.0,
        -0.9999110698699951
      ],
      "type": "VEC3"
    },
    {
      "bufferView": 3,
      "componentType": 5126,
      "count": 40349,
      "max": [
        0.9999980330467224,
        1.0,
        0.9999604821205139,
        1.0
      ],
      "min": [
        -0.9999024271965027,
        -0.9999699592590332,
        -0.9999938011169434,
        -1.0
      ],
      "type": "VEC4"
    },
    {
      "bufferView": 1,
      "componentType": 5126,
      "count": 40349,
      "max": [
        0.9916383028030396,
        0.9985791444778442
      ],
      "min": [
        0.009570560418069363,
        0.00116652250289917
      ],
      "type": "VEC2"
    },
    {
      "bufferView": 1,
      "byteOffset": 322792,
      "componentType": 5126,
      "count": 40349,
      "max": [
        0.9916383028030396,
        0.9985791444778442
      ],
      "min": [
        0.009570560418069363,
        0.00116652250289917
      ],
      "type": "VEC2"
    },
    {
      "bufferView": 1,
      "byteOffset": 645584,
      "componentType": 5126,
      "count": 40349,
      "max": [
        0.9916383028030396,
        0.9985791444778442
      ],
      "min": [
        0.009570560418069363,
        0.00116652250289917
      ],
      "type": "VEC2"
    },
    {
      "bufferView": 1,
      "byteOffset": 968376,
      "componentType": 5126,
      "count": 40349,
      "max": [
        0.9916383028030396,
        0.9985791444778442
      ],
      "min": [
        0.009570560418069363,
        0.00116652250289917
      ],
      "type": "VEC2"
    },
    {
      "bufferView": 1,
      "byteOffset": 1291168,
      "componentType": 5126,
      "count": 40349,
      "max": [
        0.9916383028030396,
        0.9985791444778442
      ],
      "min": [
        0.009570560418069363,
        0.00116652250289917
      ],
      "type": "VEC2"
    },
    {
      "bufferView": 0,
      "componentType": 5125,
      "count": 173442,
      "type": "SCALAR"
    }
  ],
  "asset": {
    "extras": {
      "author": "vmmaniac (https://sketchfab.com/vmmaniac)",
      "license": "CC-BY-4.0 (http://creativecommons.org/licenses/by/4.0/)",
      "source": "https://sketchfab.com/3d-models/mocasin-timeless-piel-becerro-negro-a2b08d13098e45638abae7e49b8c743c",
      "title": "Mocasín Timeless Piel Becerro Negro"
    },
    "generator": "Sketchfab-16.95.0",
    "version": "2.0"
  },
  "bufferViews": [
    {
      "buffer": 0,
      "byteLength": 693768,
      "name": "floatBufferViews",
      "target": 34963
    },
    {
      "buffer": 0,
      "byteLength": 1613960,
      "byteOffset": 693768,
      "byteStride": 8,
      "name": "floatBufferViews",
      "target": 34962
    },
    {
      "buffer": 0,
      "byteLength": 968376,
      "byteOffset": 2307728,
      "byteStride": 12,
      "name": "floatBufferViews",
      "target": 34962
    },
    {
      "buffer": 0,
      "byteLength": 645584,
      "byteOffset": 3276104,
      "byteStride": 16,
      "name": "floatBufferViews",
      "target": 34962
    }
  ],
  "buffers": [
    {
      "byteLength": 3921688,
      "uri": "scene.bin"
    }
  ],
  "images": [
    {
      "uri": "textures/3LO128YONH969_baseColor.jpeg"
    },
    {
      "uri": "textures/3LO128YONH969_metallicRoughness.png"
    },
    {
      "uri": "textures/3LO128YONH969_normal.png"
    }
  ],
  "materials": [
    {
      "doubleSided": true,
      "name": "3LO128YONH969",
      "normalTexture": {
        "index": 2,
        "texCoord": 2
      },
      "occlusionTexture": {
        "index": 1,
        "texCoord": 3
      },
      "pbrMetallicRoughness": {
        "baseColorTexture": {
          "index": 0
        },
        "metallicRoughnessTexture": {
          "index": 1,
          "texCoord": 1
        }
      }
    }
  ],
  "meshes": [
    {
      "name": "Object_0",
      "primitives": [
        {
          "attributes": {
            "NORMAL": 1,
            "POSITION": 0,
            "TANGENT": 2,
            "TEXCOORD_0": 3,
            "TEXCOORD_1": 4,
            "TEXCOORD_2": 5,
            "TEXCOORD_3": 6,
            "TEXCOORD_4": 7
          },
          "indices": 8,
          "material": 0,
          "mode": 4
        }
      ]
    }
  ],
  "nodes": [
    {
      "children": [
        1
      ],
      "matrix": [
        1.0,
        0.0,
        0.0,
        0.0,
        0.0,
        2.220446049250313e-16,
        -1.0,
        0.0,
        0.0,
        1.0,
        2.220446049250313e-16,
        0.0,
        0.0,
        0.0,
        0.0,
        1.0
      ],
      "name": "Sketchfab_model"
    },
    {
      "children": [
        2
      ],
      "name": "root"
    },
    {
      "children": [
        3
      ],
      "matrix": [
        1.0,
        0.0,
        0.0,
        0.0,
        0.0,
        2.220446049250313e-16,
        1.0,
        0.0,
        0.0,
        -1.0,
        2.220446049250313e-16,
        0.0,
        0.0,
        0.0,
        0.0,
        1.0
      ],
      "name": "GLTF_SceneRootNode"
    },
    {
      "children": [
        4
      ],
      "name": "3LO128YONH969_0"
    },
    {
      "mesh": 0,
      "name": "Object_4"
    }
  ],
  "samplers": [
    {
      "magFilter": 9729,
      "minFilter": 9987,
      "wrapS": 10497,
      "wrapT": 10497
    }
  ],
  "scene": 0,
  "scenes": [
    {
      "name": "Sketchfab_Scene",
      "nodes": [
        0
      ]
    }
  ],
  "textures": [
    {
      "sampler": 0,
      "source": 0
    },
    {
      "sampler": 0,
      "source": 1
    },
    {
      "sampler": 0,
      "source": 2
    }
  ]
}
