{
  "accessors": [
    {
      "bufferView": 3,
      "componentType": 5126,
      "count": 258,
      "max": [
        0.09641634672880173,
        0.05778684467077255,
        0.028890732675790787
      ],
      "min": [
        -0.0965249314904213,
        0.022827619686722755,
        -0.0010502333752810955
      ],
      "type": "VEC3"
    },
    {
      "bufferView": 3,
      "byteOffset": 3096,
      "componentType": 5126,
      "count": 258,
      "max": [
        0.9521235227584839,
        0.25667452812194824,
        0.166140615940094
      ],
      "min": [
        -0.9521223306655884,
        -0.25667300820350647,
        -0.16614055633544922
      ],
      "type": "VEC3"
    },
    {
      "bufferView": 4,
      "componentType": 5126,
      "count": 258,
      "max": [
        -0.0886603444814682,
        0.18493081629276276,
        0.9861059188842773,
        1.0
      ],
      "min": [
        -0.20728535950183868,
        -0.2882140278816223,
        -0.9861055612564087,
        -1.0
      ],
      "type": "VEC4"
    },
    {
      "bufferView": 2,
      "componentType": 5126,
      "count": 258,
      "max": [
        0.9444900155067444,
        0.7951943278312683
      ],
      "min": [
        0.590494692325592,
        0.37090468406677246
      ],
      "type": "VEC2"
    },
    {
      "bufferView": 1,
      "componentType": 5125,
      "count": 576,
      "type": "SCALAR"
    },
    {
      "bufferView": 3,
      "byteOffset": 6192,
      "componentType": 5126,
      "count": 780,
      "max": [
        0.0979594811797142,
        0.05930934473872185,
        0.030112968757748604
      ],
      "min": [
        -0.09806293249130249,
        0.02130049467086792,
        -0.002318078186362982
      ],
      "type": "VEC3"
    },
    {
      "bufferView": 3,
      "byteOffset": 15552,
      "componentType": 5126,
      "count": 780,
      "max": [
        0.9521237015724182,
        0.965941846370697,
        0.9856340289115906
      ],
      "min": [
        -0.9521223306655884,
        -0.9661505818367004,
        -0.9860445261001587
      ],
      "type": "VEC3"
    },
    {
      "bufferView": 4,
      "byteOffset": 4128,
      "componentType": 5126,
      "count": 780,
      "max": [
        0.5750073194503784,
        0.3445516526699066,
        0.9999879598617554,
        1.0
      ],
      "min": [
        -0.9521377682685852,
        -0.3870200514793396,
        -0.9995783567428589,
        -1.0
      ],
      "type": "VEC4"
    },
    {
      "bufferView": 2,
      "byteOffset": 2064,
      "componentType": 5126,
      "count": 780,
      "max": [
        0.9957852363586426,
        0.9416747093200684
      ],
      "min": [
        0.8526946306228638,
        0.5339458584785461
      ],
      "type": "VEC2"
    },
    {
      "bufferView": 1,
      "byteOffset": 2304,
      "componentType": 5125,
      "count": 2304,
      "type": "SCALAR"
    },
    {
      "bufferView": 3,
      "byteOffset": 24912,
      "componentType": 5126,
      "count": 4878,
      "max": [
        0.10166153311729431,
        0.08509352803230286,
        0.12097089737653732
      ],
      "min": [
        -0.10166153311729431,
        -0.022746486589312553,
        -0.06898920238018036
      ],
      "type": "VEC3"
    },
    {
      "bufferView": 3,
      "byteOffset": 83448,
      "componentType": 5126,
      "count": 4878,
      "max": [
        1.0,
        1.0,
        0.9999978542327881
      ],
      "min": [
        -1.0,
        -1.0,
        -0.9989940524101257
      ],
      "type": "VEC3"
    },
    {
      "bufferView": 4,
      "byteOffset": 16608,
      "componentType": 5126,
      "count": 4878,
      "max": [
        1.0,
        0.9974040389060974,
        0.9999240040779114,
        1.0
      ],
      "min": [
        -1.0,
        -0.9957855939865112,
        -1.0,
        -1.0
      ],
      "type": "VEC4"
    },
    {
      "bufferView": 2,
      "byteOffset": 8304,
      "componentType": 5126,
      "count": 4878,
      "max": [
        0.9848558902740479,
        0.9976580142974854
      ],
      "min": [
        0.002544829621911049,
        0.005819644313305616
      ],
      "type": "VEC2"
    },
    {
      "bufferView": 1,
      "byteOffset": 11520,
      "componentType": 5125,
      "count": 17442,
      "type": "SCALAR"
    },
    {
      "bufferView": 5,
      "componentType": 5126,
      "count": 33,
      "max": [
        1.0,
        1.0,
        0.02978633902966976,
        0.0,
        0.9933064579963684,
        1.0,
        1.0,
        0.0,
        0.9976794123649597,
        0.06808606535196304,
        1.0,
        0.0,
        0.1765422374010086,
        0.052181411534547806,
        0.05541673302650452,
        1.0
      ],
      "min": [
        -1.0410463602283926e-08,
        0.0,
        -1.255433659252958e-07,
        0.0,
        -0.9933064579963684,
        -1.0261709348924342e-07,
        -1.0,
        0.0,
        -0.9976794123649597,
        -0.06808605045080185,
        -0.993306577205658,
        0.0,
        -0.17654229700565338,
        -0.05218137800693512,
        -0.05541669949889183,
        1.0
      ],
      "type": "MAT4"
    },
    {
      "bufferView": 0,
      "componentType": 5123,
      "count": 258,
      "type": "VEC4"
    },
    {
      "bufferView": 4,
      "byteOffset": 94656,
      "componentType": 5126,
      "count": 258,
      "max": [
        1.0,
        0.04601046442985535,
        0.0,
        0.0
      ],
      "min": [
        0.9539895057678223,
        0.0,
        0.0,
        0.0
      ],
      "type": "VEC4"
    },
    {
      "bufferView": 0,
      "byteOffset": 2064,
      "componentType": 5123,
      "count": 780,
      "type": "VEC4"
    },
    {
      "bufferView": 4,
      "byteOffset": 98784,
      "componentType": 5126,
      "count": 780,
      "max": [
        1.0,
        0.049529120326042175,
        0.0,
        0.0
      ],
      "min": [
        0.9504708647727966,
        0.0,
        0.0,
        0.0
      ],
      "type": "VEC4"
    },
    {
      "bufferView": 0,
      "byteOffset": 8304,
      "componentType": 5123,
      "count": 4878,
      "type": "VEC4"
    },
    {
      "bufferView": 4,
      "byteOffset": 111264,
      "componentType": 5126,
      "count": 4878,
      "max": [
        1.0,
        0.49783846735954285,
        0.049399565905332565,
        0.0
      ],
      "min": [
        0.5021615624427795,
        0.0,
        0.0,
        0.0
      ],
      "type": "VEC4"
    }
  ],
  "asset": {
    "extras": {
      "author": "zHairezt (https://sketchfab.com/zHairezt)",
      "license": "CC-BY-4.0 (http://creativecommons.org/licenses/by/4.0/)",
      "source": "https://sketchfab.com/3d-models/my-sweet-piano-shoes-with-bones-b74322c7f79843c997030b025a8f10ba",
      "title": "My Sweet Piano Shoes (With Bones)"
    },
    "generator": "Sketchfab-16.64.0",
    "version": "2.0"
  },
  "bufferViews": [
    {
      "buffer": 0,
      "byteLength": 47328,
      "byteStride": 8,
      "name": "shortBufferViews",
      "target": 34962
    },
    {
      "buffer": 0,
      "byteLength": 81288,
      "byteOffset": 47328,
      "name": "floatBufferViews",
      "target": 34963
    },
    {
      "buffer": 0,
      "byteLength": 47328,
      "byteOffset": 128616,
      "byteStride": 8,
      "name": "floatBufferViews",
      "target": 34962
    },
    {
      "buffer": 0,
      "byteLength": 141984,
      "byteOffset": 175944,
      "byteStride": 12,
      "name": "floatBufferViews",
      "target": 34962
    },
    {
      "buffer": 0,
      "byteLength": 189312,
      "byteOffset": 317928,
      "byteStride": 16,
      "name": "floatBufferViews",
      "target": 34962
    },
    {
      "buffer": 0,
      "byteLength": 2112,
      "byteOffset": 507240,
      "name": "floatBufferViews"
    }
  ],
  "buffers": [
    {
      "byteLength": 509352,
      "uri": "scene.bin"
    }
  ],
  "extensionsUsed": [
    "KHR_materials_specular"
  ],
  "images": [
    {
      "uri": "textures/CN_IP_MSP_SH_1_01_shd_baseColor.png"
    },
    {
      "uri": "textures/CN_IP_MSP_SH_1_01_shd_normal.png"
    },
    {
      "uri": "textures/CN_IP_MSP_SH_1_01_shd_specularf0.png"
    },
    {
      "uri": "textures/CN_IP_MSP_SH_1_02_shd_baseColor.png"
    }
  ],
  "materials": [
    {
      "doubleSided": true,
      "extensions": {
        "KHR_materials_specular": {
          "specularColorFactor": [
            1.0,
            1.0,
            1.0
          ],
          "specularFactor": 1.0,
          "specularTexture": {
            "index": 2
          }
        }
      },
      "name": "CN_IP_MSP_SH_1_01_shd",
      "normalTexture": {
        "index": 1
      },
      "pbrMetallicRoughness": {
        "baseColorTexture": {
          "index": 0
        },
        "metallicFactor": 0.0,
        "roughnessFactor": 0.9577051494623774
      }
    },
    {
      "alphaMode": "BLEND",
      "doubleSided": true,
      "extensions": {
        "KHR_materials_specular": {
          "specularColorFactor": [
            1.0,
            1.0,
            1.0
          ],
          "specularFactor": 1.0,
          "specularTexture": {
            "index": 2
          }
        }
      },
      "name": "CN_IP_MSP_SH_1_02_shd",
      "normalTexture": {
        "index": 1
      },
      "pbrMetallicRoughness": {
        "baseColorTexture": {
          "index": 3
        },
        "metallicFactor": 0.0,
        "roughnessFactor": 0.9577051494623774
      }
    },
    {
      "doubleSided": true,
      "extensions": {
        "KHR_materials_specular": {
          "specularColorFactor": [
            1.0,
            1.0,
            1.0
          ],
          "specularFactor": 1.0,
          "specularTexture": {
            "index": 2
          }
        }
      },
      "name": "CN_IP_MSP_SH_1_shd",
      "normalTexture": {
        "index": 1
      },
      "pbrMetallicRoughness": {
        "baseColorTexture": {
          "index": 0
        },
        "metallicFactor": 0.0,
        "roughnessFactor": 0.9577051494623774
      }
    }
  ],
  "meshes": [
    {
      "name": "CN_IP_MSP_SH_1_CN_IP_MSP_SH_1_01_shd_0",
      "primitives": [
        {
          "attributes": {
            "JOINTS_0": 16,
            "NORMAL": 1,
            "POSITION": 0,
            "TANGENT": 2,
            "TEXCOORD_0": 3,
            "WEIGHTS_0": 17
          },
          "indices": 4,
          "material": 0,
          "mode": 4
        }
      ]
    },
    {
      "name": "CN_IP_MSP_SH_1_CN_IP_MSP_SH_1_02_shd_0",
      "primitives": [
        {
          "attributes": {
            "JOINTS_0": 18,
            "NORMAL": 6,
            "POSITION": 5,
            "TANGENT": 7,
            "TEXCOORD_0": 8,
            "WEIGHTS_0": 19
          },
          "indices": 9,
          "material": 1,
          "mode": 4
        }
      ]
    },
    {
      "name": "CN_IP_MSP_SH_1_CN_IP_MSP_SH_1_shd_0",
      "primitives": [
        {
          "attributes": {
            "JOINTS_0": 20,
            "NORMAL": 11,
            "POSITION": 10,
            "TANGENT": 12,
            "TEXCOORD_0": 13,
            "TEXCOORD_1": 13,
            "WEIGHTS_0": 21
          },
          "indices": 14,
          "material": 2,
          "mode": 4
        }
      ]
    }
  ],
  "nodes": [
    {
      "children": [
        1
      ],
      "matrix": [
        1.0,
        0.0,
        0.0,
        0.0,
        0.0,
        2.220446049250313e-16,
        -1.0,
        0.0,
        0.0,
        1.0,
        2.220446049250313e-16,
        0.0,
        0.0,
        0.0,
        0.0,
        1.0
      ],
      "name": "Sketchfab_model"
    },
    {
      "children": [
        2
      ],
      "matrix": [
        0.009999999776482582,
        0.0,
        0.0,
        0.0,
        0.0,
        0.0,
        0.009999999776482582,
        0.0,
        0.0,
        -0.009999999776482582,
        0.0,
        0.0,
        0.0,
        0.0,
        0.0,
        1.0
      ],
      "name": "db32a34261ee4f3187ee2431f8de51c8.fbx"
    },
    {
      "children": [
        3
      ],
      "name": "RootNode"
    },
    {
      "children": [
        4
      ],
      "name": "CN_IP_MSP_SH_1"
    },
    {
      "children": [
        5,
        7,
        8,
        9,
        6
      ],
      "name": "Object_4"
    },
    {
      "children": [
        10
      ],
      "name": "_rootJoint"
    },
    {
      "matrix": [
        1.0,
        7.496324301261813e-25,
        0.0,
        0.0,
        -7.496324301261813e-25,
        1.0,
        1.3877787807814457e-17,
        0.0,
        1.0403239799147442e-41,
        -1.3877787807814457e-17,
        1.0,
        0.0,
        -1.3877787807814457e-17,
        -2.7755575615628914e-17,
        0.0,
        1.0
      ],
      "name": "Object_6"
    },
    {
      "mesh": 0,
      "name": "Object_7",
      "skin": 0
    },
    {
      "mesh": 1,
      "name": "Object_8",
      "skin": 0
    },
    {
      "mesh": 2,
      "name": "Object_9",
      "skin": 0
    },
    {
      "children": [
        11,
        12,
        14,
        34
      ],
      "name": "hips_01",
      "rotation": [
        0.04217461496591568,
        -0.04217479005455971,
        0.705847978591919,
        0.705847978591919
      ],
      "translation": [
        -0.04331684857606888,
        0.6223267912864685,
        0.0030717107001692057
      ]
    },
    {
      "name": "hips_scale_04",
      "rotation": [
        5.293955920339377e-23,
        0.0,
        3.308722450212111e-24,
        1.0
      ],
      "translation": [
        -0.08970259130001068,
        -0.04331684857606888,
        0.011795328930020332
      ]
    },
    {
      "children": [
        13
      ],
      "name": "expressions_02",
      "rotation": [
        -0.04217461869120598,
        0.04217478632926941,
        -0.705847978591919,
        0.705847978591919
      ],
      "translation": [
        -0.08970259130001068,
        -0.04331684857606888,
        0.011795328930020332
      ]
    },
    {
      "name": "_hips_03",
      "rotation": [
        6.685672907909094e-36,
        0.0,
        3.056111135848602e-28,
        1.0
      ],
      "translation": [
        0.0,
        0.03269999846816063,
        0.0
      ]
    },
    {
      "children": [
        15,
        16,
        25
      ],
      "name": "pelvis_05",
      "rotation": [
        1.3403241894138773e-07,
        0.059644028544425964,
        6.209680325497402e-09,
        0.9982197284698486
      ],
      "translation": [
        -0.08970259130001068,
        -0.04331684857606888,
        0.011795328930020332
      ]
    },
    {
      "name": "pelvis_scale_06",
      "rotation": [
        1.6543612251060553e-24,
        -1.6543612251060553e-24,
        -9.610966044434085e-26,
        1.0
      ]
    },
    {
      "children": [
        17
      ],
      "name": "upperLeg_L_07",
      "rotation": [
        -0.007267134729772806,
        1.3298753209767256e-08,
        0.9999735951423645,
        9.664644778917264e-11
      ],
      "translation": [
        -0.006406494416296482,
        -0.05081365630030632,
        0.0027239322662353516
      ]
    },
    {
      "children": [
        18
      ],
      "name": "upperLegTwist_L_08",
      "rotation": [
        2.589299251626407e-15,
        2.6020852139652106e-18,
        8.365515074550915e-15,
        1.0
      ],
      "translation": [
        0.11920048296451569,
        1.9359513991901167e-15,
        5.551115123125783e-17
      ]
    },
    {
      "children": [
        19,
        24
      ],
      "name": "lowerLeg_L_09",
      "rotation": [
        2.1843730336091206e-15,
        0.05059456080198288,
        8.103581147040836e-15,
        0.9987192749977112
      ],
      "translation": [
        0.11920050531625748,
        1.222624335106559e-09,
        8.25589457909004e-11
      ]
    },
    {
      "children": [
        20,
        23
      ],
      "name": "lowerLegTwist_L_011",
      "rotation": [
        1.796528505522638e-15,
        1.249000902703301e-16,
        8.203571692398312e-15,
        1.0
      ],
      "translation": [
        0.10899998247623444,
        -1.5161483180037294e-14,
        -4.5102810375396984e-17
      ]
    },
    {
      "children": [
        21,
        22
      ],
      "name": "foot_L_012",
      "rotation": [
        -0.0298746470361948,
        -0.5781607627868652,
        0.01636396534740925,
        0.8152115345001221
      ],
      "translation": [
        0.10899999737739563,
        -1.6958656701149266e-14,
        -6.938893903907228e-18
      ]
    },
    {
      "name": "toes_L_014",
      "rotation": [
        8.554045113617045e-18,
        -0.22446928918361664,
        -4.7873822414057774e-17,
        0.9744811654090881
      ],
      "translation": [
        0.08892009407281876,
        -1.2642351610026026e-09,
        -1.772338942274132e-10
      ]
    },
    {
      "name": "heel_L_013",
      "rotation": [
        -3.2821739770483305e-10,
        -0.2240704596042633,
        -0.034953709691762924,
        0.9739459156990051
      ],
      "translation": [
        0.02603786624968052,
        0.0,
        -0.018866578117012978
      ]
    },
    {
      "name": "lowerLegTwist_L_scale_015",
      "rotation": [
        1.0339757656912846e-25,
        0.0,
        2.5849394142282115e-26,
        1.0
      ]
    },
    {
      "name": "lowerLeg_L_scale_010",
      "rotation": [
        1.796528505522638e-15,
        1.249000902703301e-16,
        8.203571692398312e-15,
        1.0
      ],
      "translation": [
        -1.1102230246251565e-16,
        0.0,
        -1.0408340855860843e-17
      ]
    },
    {
      "children": [
        26
      ],
      "name": "upperReg_R_016",
      "rotation": [
        0.9999735951423645,
        -4.87859104225663e-08,
        0.007267388049513102,
        3.5455544056262056e-10
      ],
      "translation": [
        -0.006406417116522789,
        0.05081360787153244,
        0.0027239294722676277
      ]
    },
    {
      "children": [
        27
      ],
      "name": "upperRegTwist_R_017",
      "rotation": [
        -1.715949498920684e-14,
        -2.6020852139652106e-18,
        -2.0036742244219398e-15,
        1.0
      ],
      "translation": [
        -0.11920049041509628,
        3.4168385898425413e-09,
        -1.208708466649e-09
      ]
    },
    {
      "children": [
        28,
        33
      ],
      "name": "lowerReg_R_00",
      "rotation": [
        -1.700194347288575e-14,
        0.05059405788779259,
        -3.275682659555036e-15,
        0.9987192749977112
      ],
      "translation": [
        -0.11920049041509628,
        4.916838491908493e-09,
        -1.2440554142401083e-09
      ]
    },
    {
      "children": [
        29,
        32
      ],
      "name": "lowerRegTwist_R_019",
      "rotation": [
        -1.826404628121718e-14,
        -2.8449465006019636e-16,
        -4.125559943446216e-15,
        1.0
      ],
      "translation": [
        -0.10899999737739563,
        -5.380114131980918e-10,
        -6.769990346100485e-09
      ]
    },
    {
      "children": [
        30,
        31
      ],
      "name": "foot_R_020",
      "rotation": [
        -0.029874548316001892,
        -0.5781604647636414,
        0.016363751143217087,
        0.8152117729187012
      ],
      "translation": [
        -0.10899999737739563,
        -5.380126344434188e-10,
        -6.769990346100485e-09
      ]
    },
    {
      "name": "toes_R_022",
      "rotation": [
        5.5845788438091404e-08,
        -0.22446854412555695,
        2.424423541924625e-07,
        0.9744813442230225
      ],
      "translation": [
        -0.08892011642456055,
        -7.827418357919669e-08,
        3.1689975088511346e-08
      ]
    },
    {
      "name": "heel_R_021",
      "rotation": [
        -3.3866121712522457e-11,
        -0.22407059371471405,
        -0.034953489899635315,
        0.9739459156990051
      ],
      "translation": [
        -0.026037871837615967,
        0.0,
        0.01886657066643238
      ]
    },
    {
      "name": "lowerRegTwist_R_scale_023",
      "rotation": [
        0.0,
        -0.0,
        -4.549493369041652e-24,
        1.0
      ]
    },
    {
      "name": "lowerReg_R_scale_018",
      "rotation": [
        -1.826404628121718e-14,
        -2.8449465006019636e-16,
        -4.125559943446216e-15,
        1.0
      ],
      "translation": [
        -5.551115123125783e-17,
        0.0,
        -6.938893903907228e-18
      ]
    },
    {
      "children": [
        35
      ],
      "name": "spine_024",
      "rotation": [
        1.5392854990636806e-08,
        0.06285341084003448,
        1.836560237222784e-08,
        0.9980227947235107
      ],
      "translation": [
        -0.031060848385095596,
        -0.04331684857606888,
        0.011795328930020332
      ]
    },
    {
      "children": [
        36
      ],
      "name": "chest_025",
      "rotation": [
        -5.772102503546826e-19,
        0.03718986362218857,
        -3.700678025281885e-21,
        0.9993082284927368
      ],
      "translation": [
        0.05864175036549568,
        -1.3687793953831573e-10,
        -1.249000902703301e-16
      ]
    },
    {
      "children": [
        37
      ],
      "name": "chestUpper_026",
      "rotation": [
        -1.6039876982176793e-08,
        -0.040402863174676895,
        -6.485865178262884e-10,
        0.9991834759712219
      ],
      "translation": [
        0.058645572513341904,
        1.1866748694799867e-09,
        -2.6266000929808797e-08
      ]
    },
    {
      "children": [
        38,
        41
      ],
      "name": "neck_027",
      "rotation": [
        1.4029964745532197e-07,
        -0.10609152913093567,
        -1.5582442003392316e-08,
        0.9943563938140869
      ],
      "translation": [
        0.11028395593166351,
        1.6604164443378977e-07,
        -0.01485509518533945
      ]
    },
    {
      "children": [
        39
      ],
      "name": "head_028",
      "rotation": [
        -0.07501804828643799,
        0.0750180333852768,
        -0.7031161189079285,
        0.7031161189079285
      ],
      "translation": [
        0.06953255832195282,
        -1.8462073536618107e-10,
        -4.163336342344337e-16
      ]
    },
    {
      "children": [
        40
      ],
      "name": "hairAll_029",
      "rotation": [
        -0.0,
        -3.308722450212111e-24,
        -3.903985056378308e-24,
        1.0
      ],
      "translation": [
        5.334663266687301e-10,
        0.07999999821186066,
        0.003819387871772051
      ]
    },
    {
      "name": "jBone_030",
      "rotation": [
        -0.0,
        -1.6543612251060553e-24,
        -3.903985056378308e-24,
        1.0
      ],
      "translation": [
        2.6469779601696886e-23,
        -0.019576143473386765,
        -1.734723475976807e-18
      ]
    },
    {
      "name": "neck_scale_031",
      "rotation": [
        -3.308722450212111e-24,
        2.7755575615628914e-17,
        2.481541837659083e-24,
        1.0
      ]
    }
  ],
  "samplers": [
    {
      "magFilter": 9729,
      "minFilter": 9987,
      "wrapS": 10497,
      "wrapT": 10497
    }
  ],
  "scene": 0,
  "scenes": [
    {
      "name": "Sketchfab_Scene",
      "nodes": [
        0
      ]
    }
  ],
  "skins": [
    {
      "inverseBindMatrices": 15,
      "joints": [
        5,
        10,
        11,
        12,
        13,
        14,
        15,
        16,
        17,
        18,
        19,
        20,
        21,
        22,
        23,
        24,
        25,
        26,
        27,
        28,
        29,
        30,
        31,
        32,
        33,
        34,
        35,
        36,
        37,
        38,
        39,
        40,
        41
      ],
      "skeleton": 5
    }
  ],
  "textures": [
    {
      "sampler": 0,
      "source": 0
    },
    {
      "sampler": 0,
      "source": 1
    },
    {
      "sampler": 0,
      "source": 2
    },
    {
      "sampler": 0,
      "source": 3
    }
  ]
}
