{
  "accessors": [
    {
      "bufferView": 2,
      "componentType": 5126,
      "count": 16353,
      "max": [
        2.1745474338531494,
        0.8540788888931274,
        3.0921006202697754
      ],
      "min": [
        -2.191195487976074,
        -0.8454258441925049,
        -0.0011173486709594727
      ],
      "type": "VEC3"
    },
    {
      "bufferView": 2,
      "byteOffset": 196236,
      "componentType": 5126,
      "count": 16353,
      "max": [
        0.9999973773956299,
        0.9999991655349731,
        0.9999986886978149
      ],
      "min": [
        -0.9998798966407776,
        -0.9999920129776001,
        -1.0
      ],
      "type": "VEC3"
    },
    {
      "bufferView": 3,
      "componentType": 5126,
      "count": 16353,
      "max": [
        1.0,
        1.0,
        0.9999997615814209,
        1.0
      ],
      "min": [
        -0.9999982118606567,
        -1.0,
        -0.9999976754188538,
        -1.0
      ],
      "type": "VEC4"
    },
    {
      "bufferView": 1,
      "componentType": 5126,
      "count": 16353,
      "max": [
        1.250952124595642,
        0.9891462326049805
      ],
      "min": [
        0.00390625,
        0.0036448808386921883
      ],
      "type": "VEC2"
    },
    {
      "bufferView": 1,
      "byteOffset": 130824,
      "componentType": 5126,
      "count": 16353,
      "max": [
        1.250952124595642,
        0.9891462326049805
      ],
      "min": [
        0.00390625,
        0.0036448808386921883
      ],
      "type": "VEC2"
    },
    {
      "bufferView": 1,
      "byteOffset": 261648,
      "componentType": 5126,
      "count": 16353,
      "max": [
        1.250952124595642,
        0.9891462326049805
      ],
      "min": [
        0.00390625,
        0.0036448808386921883
      ],
      "type": "VEC2"
    },
    {
      "bufferView": 1,
      "byteOffset": 392472,
      "componentType": 5126,
      "count": 16353,
      "max": [
        1.250952124595642,
        0.9891462326049805
      ],
      "min": [
        0.00390625,
        0.0036448808386921883
      ],
      "type": "VEC2"
    },
    {
      "bufferView": 0,
      "componentType": 5125,
      "count": 73206,
      "type": "SCALAR"
    }
  ],
  "asset": {
    "extras": {
      "author": "EvaDankovska (https://sketchfab.com/EvaDankovska)",
      "license": "CC-BY-4.0 (http://creativecommons.org/licenses/by/4.0/)",
      "source": "https://sketchfab.com/3d-models/converse-run-star-hike-bw-58e29c95b3e240af92b53c7ecf6f5e23",
      "title": "Converse Run Star Hike B&W"
    },
    "generator": "Sketchfab-15.28.0",
    "version": "2.0"
  },
  "bufferViews": [
    {
      "buffer": 0,
      "byteLength": 292824,
      "name": "floatBufferViews",
      "target": 34963
    },
    {
      "buffer": 0,
      "byteLength": 523296,
      "byteOffset": 292824,
      "byteStride": 8,
      "name": "floatBufferViews",
      "target": 34962
    },
    {
      "buffer": 0,
      "byteLength": 392472,
      "byteOffset": 816120,
      "byteStride": 12,
      "name": "floatBufferViews",
      "target": 34962
    },
    {
      "buffer": 0,
      "byteLength": 261648,
      "byteOffset": 1208592,
      "byteStride": 16,
      "name": "floatBufferViews",
      "target": 34962
    }
  ],
  "buffers": [
    {
      "byteLength": 1470240,
      "uri": "scene.bin"
    }
  ],
  "images": [
    {
      "uri": "textures/material_baseColor.png"
    },
    {
      "uri": "textures/material_metallicRoughness.png"
    },
    {
      "uri": "textures/material_normal.png"
    }
  ],
  "materials": [
    {
      "doubleSided": true,
      "name": "material",
      "normalTexture": {
        "index": 2
      },
      "pbrMetallicRoughness": {
        "baseColorTexture": {
          "index": 0
        },
        "metallicRoughnessTexture": {
          "index": 1
        }
      }
    }
  ],
  "meshes": [
    {
      "name": "1_2bb_0",
      "primitives": [
        {
          "attributes": {
            "NORMAL": 1,
            "POSITION": 0,
            "TANGENT": 2,
            "TEXCOORD_0": 3,
            "TEXCOORD_1": 4,
            "TEXCOORD_2": 5,
            "TEXCOORD_3": 6
          },
          "indices": 7,
          "material": 0,
          "mode": 4
        }
      ]
    }
  ],
  "nodes": [
    {
      "children": [
        1
      ],
      "matrix": [
        1.0,
        0.0,
        0.0,
        0.0,
        0.0,
        2.220446049250313e-16,
        -1.0,
        0.0,
        0.0,
        1.0,
        2.220446049250313e-16,
        0.0,
        0.0,
        0.0,
        0.0,
        1.0
      ],
      "name": "Sketchfab_model"
    },
    {
      "children": [
        2
      ],
      "matrix": [
        0.009999999776482582,
        0.0,
        0.0,
        0.0,
        0.0,
        0.0,
        0.009999999776482582,
        0.0,
        0.0,
        -0.009999999776482582,
        0.0,
        0.0,
        0.0,
        0.0,
        0.0,
        1.0
      ],
      "name": "converce.fbx"
    },
    {
      "children": [
        3
      ],
      "name": "RootNode"
    },
    {
      "children": [
        4
      ],
      "matrix": [
        100.0,
        0.0,
        0.0,
        0.0,
        0.0,
        -1.629206793918314e-05,
        -99.99999999999868,
        0.0,
        0.0,
        99.99999999999868,
        -1.629206793918314e-05,
        0.0,
        240.77789306640625,
        65.53608703613281,
        -203.80410766601563,
        1.0
      ],
      "name": "1"
    },
    {
      "mesh": 0,
      "name": "1_2bb_0"
    }
  ],
  "samplers": [
    {
      "magFilter": 9729,
      "minFilter": 9987,
      "wrapS": 10497,
      "wrapT": 10497
    }
  ],
  "scene": 0,
  "scenes": [
    {
      "name": "Sketchfab_Scene",
      "nodes": [
        0
      ]
    }
  ],
  "textures": [
    {
      "sampler": 0,
      "source": 0
    },
    {
      "sampler": 0,
      "source": 1
    },
    {
      "sampler": 0,
      "source": 2
    }
  ]
}
